<svg width="20" height="20" viewBox="0 0 20 20" fill="none" xmlns="http://www.w3.org/2000/svg">
<path d="M9.99998 0C4.47715 0 0 4.47715 0 9.99998C0 15.5228 4.47715 20 9.99998 20C15.5228 20 20 15.5228 20 9.99998C19.9941 4.47961 15.5204 0.00590122 9.99998 0ZM9.99998 18.5714C5.26611 18.5714 1.42856 14.7338 1.42856 9.99998C1.42856 5.26611 5.26611 1.42856 9.99998 1.42856C14.7338 1.42856 18.5714 5.26611 18.5714 9.99998C18.5663 14.7318 14.7318 18.5663 9.99998 18.5714Z" fill="#3E1714"/>
<path d="M9.99888 3.57153C9.60438 3.57153 9.28458 3.89133 9.28458 4.28583V9.28584H4.28461C3.89011 9.28584 3.57031 9.60564 3.57031 10.0001C3.57031 10.3946 3.89011 10.7144 4.28461 10.7144H9.99888C10.3934 10.7144 10.7132 10.3946 10.7132 10.0001V4.28583C10.7132 3.89133 10.3934 3.57153 9.99888 3.57153Z" fill="#3E1714"/>
</svg>
